<svg width="406" height="355" viewBox="0 0 406 355" fill="none" xmlns="http://www.w3.org/2000/svg">
<path d="M341.743 247.145C351.537 278.755 137.376 345.108 127.582 313.498L32.7539 91.1856L294.266 10.1608L341.743 247.145Z" fill="#FF0033" stroke="#CCDBDF" stroke-width="10.8175" stroke-miterlimit="10" stroke-linecap="round" stroke-linejoin="round"/>
<path d="M307.375 58.7612C359.864 102.883 386.327 152.146 369.324 183.71C346.148 226.788 250.652 220.34 156.124 169.417C131.23 155.981 115.285 138.869 96.2637 123.057" stroke="#CCDBDF" stroke-width="10.8175" stroke-miterlimit="10" stroke-linecap="round" stroke-linejoin="round"/>
<path d="M314.307 51.0481L34.768 137.658C22.8984 141.336 10.3443 134.721 6.66671 122.851C2.98913 110.982 9.60408 98.4274 21.4737 94.7499L301.012 8.1398C312.882 4.46221 325.436 11.0771 329.114 22.9467C332.791 34.8163 326.176 47.3705 314.307 51.0481Z" fill="#4B69F0" stroke="#CCDBDF" stroke-width="10.8175" stroke-miterlimit="10" stroke-linecap="round" stroke-linejoin="round"/>
</svg>
